<svg xmlns="http://www.w3.org/2000/svg" width="512" height="512" viewBox="0 0 512 512">
  <rect width="512" height="512" rx="112" fill="#161826"/>
  <g transform="translate(0 0) scale(1)">
    <!-- ticket -->
    <path d="M118 176c0-17.7 14.3-32 32-32h212c17.7 0 32 14.3 32 32v44a36 36 0 0 0 0 72v44c0 17.7-14.3 32-32 32H150c-17.7 0-32-14.3-32-32v-44a36 36 0 0 0 0-72z" fill="#9184d9"/>
    <!-- perforation -->
    <line x1="318" y1="160" x2="318" y2="352" stroke="#161826" stroke-width="10" stroke-dasharray="14 14" stroke-linecap="round"/>
    <!-- F -->
    <path d="M172 200h108v30h-74v34h62v30h-62v52h-34z" fill="#161826"/>
    <!-- QR hint -->
    <g fill="#e9e9ed" opacity="0.9">
      <rect x="338" y="200" width="14" height="14" rx="3"/><rect x="358" y="200" width="14" height="14" rx="3"/><rect x="378" y="200" width="14" height="14" rx="3"/>
      <rect x="338" y="220" width="14" height="14" rx="3"/><rect x="378" y="220" width="14" height="14" rx="3"/>
      <rect x="338" y="240" width="14" height="14" rx="3"/><rect x="358" y="240" width="14" height="14" rx="3"/><rect x="378" y="240" width="14" height="14" rx="3"/>
      <rect x="338" y="272" width="14" height="14" rx="3"/><rect x="378" y="272" width="14" height="14" rx="3"/>
      <rect x="358" y="292" width="14" height="14" rx="3"/><rect x="338" y="312" width="14" height="14" rx="3"/><rect x="378" y="312" width="14" height="14" rx="3"/>
    </g>
  </g>
</svg>